<?xml version="1.0" encoding="UTF-8"?>
<svg id="Camada_2" data-name="Camada 2" xmlns="http://www.w3.org/2000/svg" xmlns:xlink="http://www.w3.org/1999/xlink" viewBox="0 0 512 543.31">
  <defs>
    <style>
      .cls-1 {
        fill-rule: evenodd;
      }

      .cls-1, .cls-2 {
        fill: #fff;
      }

      .cls-3 {
        fill: url(#Gradiente_sem_nome_8);
      }

      .cls-4 {
        fill: none;
        stroke: #fff;
        stroke-miterlimit: 10;
        stroke-width: 3px;
      }

      .cls-2 {
        font-family: Futura-Bold, Futura;
        font-size: 22.16px;
        font-weight: 700;
      }
    </style>
    <linearGradient id="Gradiente_sem_nome_8" data-name="Gradiente sem nome 8" x1="0" y1="287.31" x2="512" y2="287.31" gradientUnits="userSpaceOnUse">
      <stop offset="0" stop-color="#3fb5a3"/>
      <stop offset="1" stop-color="#2880c2"/>
    </linearGradient>
  </defs>
  <g id="Camada_1-2" data-name="Camada 1">
    <g>
      <circle class="cls-3" cx="256" cy="287.31" r="256"/>
      <circle class="cls-4" cx="256" cy="287.31" r="241.3"/>
    </g>
  </g>
  <g id="Camada_2-2" data-name="Camada 2">
    <g>
      <path class="cls-1" d="M480.82,280.04c-28.77,8.49-27.78,20.48-43.42,39.92-17.03,21.18-21.36,36-30.63,35.92-14.9-.12-20.16-52.64-35.06-60.65-20.22-15.32-15.84-36.67-21.55-60.3-7.64-24.91-19.3-44-36.87-54.55-5.59-12.45-36.17-8.73-43.2,0-9.4,26.07-47.52,67.13-62.57,102.65-6.88,16.23-15.7-17.65-20.61-30.13-15.3-49.89-25.62-33.24-52.78-3.14-2.9,3.21-10.14-.29-13.58,3.1-3.72,3.67-4.82,6.1-8.27,3.61-22.46-44.24-49.74,56.65-73.32,87.2,30.94,100.65,105.78,169.89,217.01,169.89,134.16,0,224.87-109.28,224.85-226.15,0-2.83.05-5.32,0-7.37ZM365.94,418.44c0,14.25-1.97,24.32-8.37,35.05-25.86,43.41-88.93,41.53-112.61-.98-6.71-12.05-7.8-20.83-7.8-36.21,0-7.61.44-37.71-.34-42.86-3.99-26.25-39.35-31.11-50.83-7.6-7.96,16.31,4.11,36.82,24.35,36.9,9.38.04,12.16-3.28,16.59-5.43.5,20.18-2,35.02,5.61,52.92,2.66,6.27,4.01,3.93-1.66,11.76-.57.79-.89,1.4-1.45,2.2-2.32,3.28-13.98,21.35-15.04,21.63l-43.01-.18,27.68-40.9c1.12-1.65,2.99-4.15,3.85-5.89-22.44-3.7-38.79-13.49-49.48-32.86-11.7-21.19-9.09-45,2.97-63.48,21-32.19,70.06-38.12,98.44-10.88,24.68,23.69,19.91,49.75,19.91,81.46,0,6.75-.61,12.84,1.75,18.88,6.27,16.01,26.36,21.41,39.95,12.44,11.61-7.67,11.91-17.24,11.91-28.81,0-12.92.61-27.26-.05-40.01-.6-11.65-8.66-20.05-17.67-23.26-12.54-4.46-24.82,1.55-29.87,8.05-2.23-3.89-2.02-12-12.72-26.16-1.01-1.34-1.89-2.48-2.92-3.62-1.14-1.26-2.15-2.02-2.85-3.51,1.99-.76,7.04-4.97,14.36-7.91,5.55-2.22,11.36-3.85,17.87-4.52,37.68-3.87,70.2,24.14,71.39,60.12.47,14.3.04,29.31.04,43.69Z"/>
      <text class="cls-2" transform="translate(74.53 231.99) rotate(-74.93)"><tspan x="0" y="0">C</tspan></text>
      <text class="cls-2" transform="translate(78.73 216.72) rotate(-70.43)"><tspan x="0" y="0">E</tspan></text>
      <text class="cls-2" transform="translate(83.02 204.24) rotate(-65.24)"><tspan x="0" y="0">N</tspan></text>
      <text class="cls-2" transform="translate(91.92 185.43) rotate(-60.14)"><tspan x="0" y="0">T</tspan></text>
      <text class="cls-2" transform="translate(98.3 174.25) rotate(-55.58)"><tspan x="0" y="0">R</tspan></text>
      <text class="cls-2" transform="translate(107.05 161.27) rotate(-49.98)"><tspan x="0" y="0">O</tspan></text>
      <text class="cls-2" transform="translate(121.06 145.05) rotate(-45.32)"><tspan x="0" y="0"> </tspan></text>
      <text class="cls-2" transform="translate(127.53 138.47) rotate(-41.64)"><tspan x="0" y="0">E</tspan></text>
      <text class="cls-2" transform="translate(137.46 129.53) rotate(-36.65)"><tspan x="0" y="0">X</tspan></text>
      <text class="cls-2" transform="translate(151.71 119.01) rotate(-31.62)"><tspan x="0" y="0">C</tspan></text>
      <text class="cls-2" transform="translate(164.75 110.92) rotate(-26.41)"><tspan x="0" y="0">U</tspan></text>
      <text class="cls-2" transform="translate(181.4 102.74) rotate(-21.12)"><tspan x="0" y="0">R</tspan></text>
      <text class="cls-2" transform="translate(196.78 96.86) rotate(-16.25)"><tspan x="0" y="0">S</tspan></text>
      <text class="cls-2" transform="translate(212.01 92.59) rotate(-12.32)"><tspan x="0" y="0">I</tspan></text>
      <text class="cls-2" transform="translate(220.54 90.5) rotate(-7.6)"><tspan x="0" y="0">O</tspan></text>
      <text class="cls-2" transform="translate(240.62 87.81) rotate(-1.33)"><tspan x="0" y="0">N</tspan></text>
      <text class="cls-2" transform="translate(261.74 87.61) rotate(3.32)"><tspan x="0" y="0">I</tspan></text>
      <text class="cls-2" transform="translate(271.11 88.1) rotate(7.21)"><tspan x="0" y="0">S</tspan></text>
      <text class="cls-2" transform="translate(286.55 90.15) rotate(11.62)"><tspan x="0" y="0">T</tspan></text>
      <text class="cls-2" transform="translate(298.36 92.47) rotate(16.22)"><tspan x="0" y="0">A</tspan></text>
      <text class="cls-2" transform="translate(316.57 98.01) rotate(20.47)"><tspan x="0" y="0"> </tspan></text>
      <text class="cls-2" transform="translate(325.29 101.25) rotate(24.01)"><tspan x="0" y="0">F</tspan></text>
      <text class="cls-2" transform="translate(337.36 106.59) rotate(28.58)"><tspan x="0" y="0">R</tspan></text>
      <text class="cls-2" transform="translate(352.31 114.95) rotate(32.61)"><tspan x="0" y="0">I</tspan></text>
      <text class="cls-2" transform="translate(360.18 119.89) rotate(36.61)"><tspan x="0" y="0">B</tspan></text>
      <text class="cls-2" transform="translate(372.91 129.3) rotate(41.89)"><tspan x="0" y="0">U</tspan></text>
      <text class="cls-2" transform="translate(386.63 141.7) rotate(47.22)"><tspan x="0" y="0">R</tspan></text>
      <text class="cls-2" transform="translate(397.47 153.29) rotate(52.69)"><tspan x="0" y="0">G</tspan></text>
      <text class="cls-2" transform="translate(409.34 168.94) rotate(58.47)"><tspan x="0" y="0">U</tspan></text>
      <text class="cls-2" transform="translate(419.06 185.07) rotate(63.33)"><tspan x="0" y="0">E</tspan></text>
      <text class="cls-2" transform="translate(425.15 196.87) rotate(68.42)"><tspan x="0" y="0">N</tspan></text>
      <text class="cls-2" transform="translate(432.59 216.1) rotate(73.79)"><tspan x="0" y="0">S</tspan></text>
      <text class="cls-2" transform="translate(436.81 230.9) rotate(78.26)"><tspan x="0" y="0">E</tspan></text>
    </g>
  </g>
</svg>