<?xml version="1.0" encoding="UTF-8"?>
<svg id="Camada_2" data-name="Camada 2" xmlns="http://www.w3.org/2000/svg" viewBox="0 0 1000 1000">
  <defs>
    <style>
      .cls-1 {
        fill: #fff;
        stroke: #fff;
        stroke-miterlimit: 10;
        stroke-width: 12px;
      }
    </style>
  </defs>
  <g id="Camada_1-2" data-name="Camada 1">
    <rect width="1000" height="1000" rx="150" ry="150"/>
  </g>
  <g id="Camada_2-2" data-name="Camada 2">
    <path class="cls-1" d="M869.44,611.61c-18.21,33.93-41.03,81.94-60.5,82.3-29.42-.27-39.83-120.61-69.25-138.97-39.94-35.1-31.29-84.01-42.56-138.15-15.08-57.08-38.13-100.8-72.83-124.99-11.03-28.52-71.44-20.01-85.33,0-18.58,59.74-93.85,153.81-123.58,235.19-13.59,37.2-31-40.44-40.71-69.03-30.22-114.3-50.6-76.16-104.25-7.2-5.72,7.35-20.03-.66-26.82,7.11-7.35,8.41-9.53,13.97-16.34,8.27-44.37-101.37-82.45,120.92-129.03,190.94-35.29-.85-38.93,15.46-48.51,23.68v32.62c9.58-8.22,13.23-24.53,48.51-23.68,46.58-70.02,84.67-292.31,129.03-190.94,6.81,5.71,8.99.15,16.34-8.27,6.79-7.77,21.1.24,26.82-7.11,53.64-68.96,74.03-107.1,104.25,7.2,9.71,28.59,27.13,106.23,40.71,69.03,29.73-81.38,105.01-175.45,123.58-235.19,13.89-20.01,74.3-28.52,85.33,0,34.7,24.19,57.75,67.91,72.83,124.99,11.27,54.14,2.62,103.05,42.56,138.15,29.42,18.37,39.83,138.7,69.25,138.97,19.47-.37,42.29-48.37,60.5-82.3,17.7-32.98,22.98-93.34,80.84-90.55v-32.62c-57.86-2.79-63.14,57.57-80.84,90.55Z"/>
  </g>
</svg>