<?xml version="1.0" encoding="UTF-8"?>
<svg id="Camada_2" data-name="Camada 2" xmlns="http://www.w3.org/2000/svg" xmlns:xlink="http://www.w3.org/1999/xlink" viewBox="0 0 503.32 503.32">
  <defs>
    <style>
      .cls-1 {
        fill: none;
      }

      .cls-2 {
        fill: #f7c35f;
      }

      .cls-3 {
        fill: #1d1d1b;
        fill-rule: evenodd;
      }

      .cls-4 {
        clip-path: url(#clippath);
      }
    </style>
    <clipPath id="clippath">
      <circle class="cls-1" cx="251.66" cy="251.66" r="251.66"/>
    </clipPath>
  </defs>
  <g id="Camada_2-2" data-name="Camada 2">
    <circle class="cls-2" cx="251.66" cy="251.66" r="251.66"/>
  </g>
  <g id="Camada_1-2" data-name="Camada 1">
    <g class="cls-4">
      <path id="Desenho_3_Picos" data-name="Desenho 3 Picos" class="cls-3" d="M-3.3,321.39c13.06,0,7.96-14.51,33.93-13.95,25.7-34.55,46.71-144.26,71.19-94.23,3.76,2.82,4.96.07,9.01-4.08,3.74-3.83,11.64.12,14.8-3.51,29.59-34.03,40.84-52.86,57.51,3.55,5.36,14.11,14.96,52.42,22.46,34.07,16.4-40.16,57.93-86.59,68.18-116.07,7.66-9.87,40.99-14.07,47.08,0,19.14,11.94,31.86,33.52,40.18,61.69,6.22,26.72,1.45,50.86,23.48,68.18,16.23,9.06,21.97,68.45,38.21,68.59,10.74-.18,23.33-23.87,33.38-40.62,9.85-16.42,12.71-46.62,45.44-44.66,29.46,153.55-70.87,301.27-263.99,313.61C62.52,526.44,12.15,433.12-3.3,321.39"/>
    </g>
  </g>
</svg>